<?xml version="1.0" standalone="no"?>
<!DOCTYPE svg PUBLIC "-//W3C//DTD SVG 20010904//EN"
 "http://www.w3.org/TR/2001/REC-SVG-20010904/DTD/svg10.dtd">
<svg version="1.0" xmlns="http://www.w3.org/2000/svg"
 width="300.000000pt" height="180.000000pt" viewBox="0 0 300.000000 180.000000"
 preserveAspectRatio="xMidYMid meet">
<metadata>
Created by potrace 1.10, written by Peter Selinger 2001-2011
</metadata>
<g transform="translate(0.000000,180.000000) scale(0.100000,-0.100000)"
fill="#000000" stroke="none">
<path d="M704 1502 c-28 -24 -34 -42 -67 -187 -21 -88 -37 -163 -37 -167 0 -5
22 -8 48 -8 l48 0 15 71 14 72 74 1 74 1 12 48 12 47 -74 0 c-72 0 -79 3 -67
34 5 13 22 16 79 16 l73 0 11 44 c6 25 11 47 11 50 0 3 -44 6 -97 6 -92 -1
-100 -2 -129 -28z m106 -29 c-79 -7 -116 -68 -68 -113 12 -11 36 -21 52 -21
24 -1 19 -4 -21 -13 -61 -13 -77 -26 -97 -81 -28 -76 -13 33 21 152 20 73 33
83 101 81 54 -1 55 -2 12 -5z"/>
<path d="M994 1496 c-41 -41 -44 -66 -8 -66 17 0 24 -4 21 -12 -2 -7 -12 -50
-22 -95 -17 -79 -19 -83 -45 -83 -23 0 -28 -5 -33 -32 -3 -18 -8 -41 -12 -50
-7 -16 2 -18 93 -18 l100 0 6 36 c4 19 10 42 13 50 4 10 -3 14 -22 14 -20 0
-25 4 -21 18 3 9 17 67 31 127 14 61 28 118 31 128 5 15 -2 17 -46 17 -46 0
-56 -4 -86 -34z m76 -33 c0 -10 -7 -38 -14 -63 l-15 -45 0 36 c-1 19 -6 40
-12 46 -16 16 -3 43 21 43 12 0 20 -7 20 -17z m-23 -260 c5 -21 2 -23 -41 -23
-50 0 -56 8 -27 34 11 10 25 32 32 49 l13 31 9 -34 c4 -19 11 -45 14 -57z"/>
<path d="M1351 1501 c-28 -23 -34 -41 -61 -160 -17 -73 -30 -141 -30 -151 0
-35 32 -50 111 -50 88 1 120 21 138 85 16 59 16 60 -38 57 -42 -3 -50 -7 -53
-25 -2 -16 -11 -23 -31 -25 -26 -3 -28 -1 -21 20 4 13 15 57 24 98 15 68 19
75 42 78 22 3 25 0 21 -22 -5 -25 -3 -26 44 -26 l49 0 10 49 c9 43 8 52 -10
74 -19 23 -28 25 -93 25 -63 0 -75 -3 -102 -27z m167 -44 c5 -27 -26 -32 -52
-8 -12 11 -29 21 -38 21 -30 0 -66 -57 -82 -129 -20 -89 -20 -90 6 -118 25
-26 60 -30 78 -8 7 8 16 15 21 15 15 0 10 -22 -8 -36 -22 -16 -129 -18 -139
-3 -3 6 4 52 16 102 47 194 49 197 141 187 41 -4 55 -9 57 -23z"/>
<path d="M1639 1504 c-32 -23 -35 -33 -65 -164 l-31 -139 46 6 c25 3 50 12 54
20 4 7 19 13 33 13 20 0 24 -4 20 -18 -5 -15 2 -20 39 -29 42 -10 46 -9 51 11
2 11 18 77 34 146 28 121 28 126 11 150 -16 22 -26 25 -88 27 -61 1 -75 -2
-104 -23z m161 -45 c0 -27 -42 -215 -50 -223 -5 -5 -22 2 -39 17 -29 24 -64
27 -77 6 -10 -16 -34 -9 -34 9 0 28 41 186 51 197 13 13 110 23 132 13 9 -5
17 -13 17 -19z"/>
<path d="M1684 1452 c-49 -39 -58 -105 -20 -141 29 -27 56 -22 86 16 30 38 27
96 -6 122 -32 25 -33 25 -60 3z m51 -54 c-12 -62 -16 -68 -41 -68 -28 0 -27
-2 -13 56 10 37 15 44 36 44 22 0 24 -3 18 -32z"/>
<path d="M1894 1516 c-8 -25 -74 -321 -74 -336 0 -18 39 -40 69 -40 13 0 20
15 32 73 13 67 16 72 43 75 25 3 27 1 20 -20 -4 -13 -12 -47 -19 -75 -12 -53
-12 -53 12 -53 68 0 125 109 88 167 -18 26 -17 27 11 51 19 17 33 42 40 72 9
42 8 50 -10 73 -20 24 -26 25 -114 25 -60 0 -95 -5 -98 -12z m186 -64 c-1 -40
-16 -44 -48 -13 -17 17 -35 31 -40 31 -20 0 -62 -42 -62 -62 0 -29 28 -58 56
-58 25 0 45 -42 43 -94 l-1 -31 -8 35 c-19 81 -93 79 -130 -3 -28 -62 -24 -15
8 113 l27 105 60 5 c67 6 95 -2 95 -28z m-60 -31 c0 -25 -14 -41 -36 -41 -25
0 -28 7 -18 34 6 17 54 23 54 7z"/>
<path d="M2191 1501 c-41 -35 -68 -142 -44 -178 13 -19 24 -23 69 -23 30 0 54
-2 54 -4 0 -3 -4 -16 -10 -30 -7 -18 -17 -26 -34 -26 -18 0 -24 4 -20 15 5 12
-4 15 -44 15 l-51 0 -7 -45 c-7 -52 12 -85 50 -85 21 1 21 1 2 15 -19 15 -19
16 10 46 28 30 31 31 106 27 l76 -5 10 51 c9 46 8 53 -11 74 -16 17 -32 22
-69 22 -26 0 -48 2 -48 4 0 3 4 16 10 30 12 34 61 38 53 5 -5 -19 -2 -20 42
-17 47 3 48 4 60 45 12 40 11 43 -14 66 -22 20 -36 24 -93 24 -58 0 -71 -3
-97 -26z m154 -24 c19 -15 13 -37 -10 -37 -7 0 -27 8 -45 18 l-31 17 -29 -33
c-32 -35 -36 -52 -19 -84 9 -17 8 -19 -8 -16 -14 3 -18 12 -16 47 3 60 24 89
70 94 21 2 45 4 54 5 8 1 23 -4 34 -11z m-41 -153 c9 -3 16 -14 16 -23 0 -30
-12 -32 -27 -5 -19 37 -18 39 11 28z"/>
<path d="M2179 1198 c-9 -17 3 -18 225 -18 215 0 235 -1 239 -17 4 -15 5 -15
6 2 2 41 -7 42 -237 47 -207 4 -224 2 -233 -14z"/>
<path d="M1580 1192 c0 -4 35 -15 78 -25 42 -9 122 -39 177 -65 118 -57 194
-86 202 -78 4 3 1 6 -6 6 -7 0 -38 17 -69 39 -81 55 -169 97 -239 115 -64 17
-143 21 -143 8z"/>
<path d="M1491 1115 l-1 -40 157 -17 c161 -18 202 -18 116 0 -270 56 -262 54
-266 76 -2 11 -5 3 -6 -19z"/>
<path d="M2216 1109 c28 -29 32 -30 100 -28 67 3 73 2 112 -30 23 -18 40 -37
36 -42 -3 -5 -26 -9 -51 -9 -39 0 -50 -5 -77 -34 -17 -18 -42 -53 -55 -76
l-23 -43 23 6 c13 4 45 7 70 7 l47 0 70 89 71 89 -31 24 -31 24 61 23 c34 12
62 24 62 27 0 2 -93 4 -207 4 l-207 0 30 -31z m204 -171 c0 -5 -4 -7 -9 -4 -4
3 -13 -6 -19 -19 -7 -15 -20 -25 -32 -25 -24 0 -26 17 -5 40 17 18 65 24 65 8z"/>
<path d="M2095 1119 c-11 -4 -32 -8 -48 -8 l-27 -1 37 -50 c36 -49 38 -50 90
-50 l53 0 -46 -70 c-31 -49 -44 -79 -42 -98 3 -24 8 -19 58 55 60 90 91 100
38 12 -73 -121 -84 -147 -70 -169 17 -27 17 -27 -27 -34 -25 -4 -46 -15 -55
-28 -21 -30 -21 -31 12 -50 19 -12 61 -18 141 -21 108 -5 115 -4 177 24 41 19
68 38 73 52 5 12 18 31 30 41 11 11 21 25 21 32 0 8 6 11 14 8 8 -3 12 -12 9
-20 -3 -8 0 -14 6 -14 21 0 17 125 -5 179 -8 19 -12 36 -9 39 9 9 38 -72 43
-118 2 -25 -1 -63 -7 -85 -14 -51 -8 -55 14 -8 16 32 19 35 25 18 6 -17 7 -17
13 6 14 50 7 106 -19 154 -14 27 -19 43 -11 36 27 -22 47 -78 47 -134 0 -44
-5 -62 -29 -94 -16 -23 -40 -48 -52 -57 -27 -19 -19 -31 14 -22 60 15 108 107
101 195 -7 81 -63 161 -113 161 -8 0 -40 -37 -111 -132 -14 -18 -35 -43 -47
-55 l-22 -23 32 -1 c48 -1 24 -7 -93 -23 -58 -8 -115 -18 -127 -21 -14 -5 -23
-3 -23 4 0 6 29 58 65 116 l66 106 -34 40 c-52 61 -138 118 -162 108z m385
-306 c0 -63 -9 -86 -28 -75 -8 6 -9 17 -1 46 6 21 8 45 5 53 -7 17 0 33 15 33
5 0 9 -26 9 -57z m-70 -72 c0 -11 -56 -41 -75 -41 -11 0 -25 21 -25 35 0 4 41
11 78 14 12 0 22 -3 22 -8z m25 -52 c-11 -17 -56 -30 -78 -23 -19 6 -17 8 13
19 45 16 73 18 65 4z m-108 -27 l31 -27 -81 3 c-124 4 -207 13 -207 22 0 4 39
11 88 15 74 5 107 8 132 13 3 1 19 -11 37 -26z"/>
<path d="M1385 1100 c-16 -7 -13 -9 16 -9 41 -1 59 -16 59 -49 0 -20 2 -22 15
-12 13 11 13 15 -1 41 -8 16 -21 29 -28 29 -8 0 -20 2 -28 4 -7 3 -22 1 -33
-4z"/>
<path d="M1344 1068 c-4 -6 0 -16 9 -23 14 -10 14 -12 -4 -23 -31 -20 -22 -32
25 -32 63 0 99 43 64 78 -15 15 -85 16 -94 0z"/>
<path d="M1189 1026 c-21 -7 -61 -11 -95 -8 -70 5 -173 -18 -219 -49 -17 -12
-21 -18 -10 -14 90 30 157 37 300 32 83 -3 134 -2 115 2 -19 4 -44 12 -55 19
-18 10 -16 11 18 12 21 0 47 -5 58 -10 11 -6 19 -7 19 -1 0 10 -54 31 -79 31
-9 -1 -32 -7 -52 -14z"/>
<path d="M550 999 c-16 -10 -36 -32 -45 -48 -18 -35 -20 -66 -2 -35 7 12 18
19 25 17 6 -3 12 1 12 7 0 21 53 6 72 -21 21 -28 28 -102 15 -154 -7 -23 -6
-27 3 -18 7 6 14 40 17 75 3 48 0 71 -14 98 -23 45 -64 61 -93 35 -11 -10 -20
-13 -20 -7 0 18 56 52 86 52 15 0 24 3 20 7 -13 13 -46 10 -76 -8z"/>
<path d="M665 987 c27 -32 75 -51 75 -29 0 16 -45 51 -75 58 l-30 7 30 -36z"/>
<path d="M746 963 c23 -43 25 -57 20 -137 -4 -74 -8 -91 -25 -103 -12 -8 -21
-21 -21 -29 0 -15 -18 -18 -43 -8 -14 5 -14 10 0 42 32 77 29 217 -5 210 -11
-2 -16 -11 -14 -23 2 -11 4 -47 5 -80 1 -94 -36 -147 -100 -144 -95 3 -286 -4
-273 -10 8 -5 65 -11 125 -15 61 -3 484 -41 940 -82 l830 -76 225 41 c124 22
264 46 313 52 48 7 87 16 87 20 0 4 -65 8 -146 8 -81 1 -143 -3 -140 -8 9 -13
-11 -18 -177 -47 -154 -26 -219 -28 -407 -7 -82 9 -84 12 -38 62 23 24 38 35
35 25 -6 -15 -3 -15 12 4 24 28 36 97 28 163 -8 64 -12 69 -51 69 l-34 0 15
-42 c27 -77 -3 -195 -52 -205 -73 -16 -82 -15 -118 17 -34 29 -50 63 -60 120
-3 19 -5 16 -5 -10 -2 -44 29 -112 59 -134 27 -18 80 -21 112 -5 21 10 21 9
-2 -10 -37 -33 -87 -28 -124 12 -18 18 -36 40 -42 50 -9 15 -41 19 -240 32
-126 8 -260 15 -297 17 -38 2 -68 5 -68 8 0 3 11 22 25 43 14 20 23 37 20 37
-3 0 -26 -5 -50 -11 -37 -9 -46 -17 -59 -50 -9 -22 -16 -45 -16 -53 0 -9 52
-18 203 -34 111 -12 238 -24 282 -27 79 -5 80 -5 35 9 l-45 13 82 2 c74 1 84
-1 112 -25 46 -38 41 -58 -10 -51 -23 3 -45 10 -48 15 -6 9 -573 67 -773 79
-89 6 -113 23 -32 23 30 0 46 5 50 15 5 11 24 15 73 16 61 1 63 2 26 10 -22 4
-69 8 -104 8 -41 1 -61 5 -55 10 5 6 48 7 106 3 75 -6 99 -5 102 5 4 9 -6 13
-32 13 -20 0 -67 3 -103 6 -60 6 -65 8 -62 28 4 20 8 21 153 18 l149 -3 -12
32 -12 32 -120 -6 -120 -5 50 23 c62 29 47 32 -30 5 -32 -11 -59 -19 -60 -18
-1 2 -7 17 -14 35 -7 17 -23 41 -36 53 l-23 22 24 -49z"/>
<path d="M614 991 c-20 -6 -20 -7 5 -27 16 -13 33 -19 44 -15 17 6 16 8 -5 27
-15 14 -30 19 -44 15z"/>
<path d="M1758 980 c-35 -19 -85 -76 -75 -86 2 -2 12 7 21 21 22 33 113 75
164 75 33 0 45 -6 71 -35 17 -20 31 -39 31 -44 0 -5 11 -6 25 -3 25 4 25 5 9
23 -10 11 -15 22 -12 25 9 8 44 -46 58 -90 7 -23 10 -63 7 -97 -6 -64 8 -72
18 -11 4 20 11 47 17 59 23 48 -27 143 -88 169 -52 22 -200 18 -246 -6z"/>
<path d="M1838 950 c18 -11 35 -27 38 -35 7 -17 59 -21 69 -5 3 5 -2 21 -11
35 -14 22 -23 25 -73 25 l-56 0 33 -20z"/>
<path d="M1100 945 c-18 -22 -4 -76 30 -115 l30 -35 -21 42 c-34 69 -28 77 76
86 50 4 173 5 275 1 102 -3 182 -3 179 0 -10 10 -330 36 -445 36 -87 0 -114
-3 -124 -15z"/>
<path d="M1748 936 c-10 -7 -18 -17 -18 -22 0 -4 5 -3 12 4 21 21 67 14 93
-14 34 -37 48 -87 43 -156 -3 -44 -2 -54 6 -41 17 29 12 134 -7 170 -36 67
-88 91 -129 59z"/>
<path d="M705 918 c4 -11 7 -44 7 -72 1 -45 2 -48 11 -26 15 35 17 36 27 20 7
-11 10 -3 10 27 0 57 -8 73 -37 73 -20 0 -23 -3 -18 -22z"/>
<path d="M414 903 c-25 -3 -35 -13 -56 -57 l-27 -53 52 -7 c85 -10 107 -8 101
9 -3 8 -9 14 -12 13 -4 0 -17 0 -30 1 -22 1 -22 2 -8 23 22 31 20 36 -11 41
-27 4 -27 4 3 6 18 0 34 8 38 16 3 9 0 14 -7 13 -7 0 -26 -3 -43 -5z"/>
<path d="M1997 893 c-13 -3 -15 -10 -10 -31 15 -52 8 -146 -14 -190 -25 -51
-11 -56 18 -7 12 19 25 32 30 29 5 -3 6 3 2 12 -4 11 -2 15 4 11 17 -11 25 73
12 131 -6 29 -14 51 -17 51 -4 -1 -15 -3 -25 -6z"/>
<path d="M505 880 c-12 -20 -7 -98 9 -128 19 -36 42 -51 67 -45 28 8 23 19 -8
18 -39 0 -66 52 -60 118 4 48 3 55 -8 37z"/>
<path d="M556 861 c-4 -5 -2 -12 4 -16 5 -3 10 -15 10 -26 0 -10 5 -19 11 -19
14 0 7 62 -8 67 -6 2 -14 0 -17 -6z"/>
<path d="M1472 853 c-109 -2 -171 -7 -167 -13 3 -6 43 -10 88 -11 45 0 122 -4
170 -7 78 -6 90 -5 98 10 12 23 11 28 -3 26 -7 -1 -91 -4 -186 -5z"/>
<path d="M2303 841 c-35 -4 -57 -13 -67 -26 -25 -33 -19 -38 44 -32 47 4 65
10 80 29 23 27 25 39 8 37 -7 -1 -37 -5 -65 -8z"/>
<path d="M1765 820 c-3 -5 -3 -15 1 -22 5 -7 7 -25 6 -40 -1 -15 1 -28 6 -28
16 0 32 25 32 50 0 38 -30 64 -45 40z"/>
<path d="M320 741 l0 -30 104 -3 105 -3 -19 30 c-19 29 -22 30 -105 33 l-85 3
0 -30z"/>
<path d="M376 631 c5 -5 65 -16 134 -24 196 -25 966 -125 1165 -152 147 -19
195 -22 260 -15 44 5 89 9 99 9 42 2 4 13 -56 17 -55 4 -563 56 -673 69 -168
19 -218 25 -275 31 -36 3 -78 8 -95 9 -16 2 -136 15 -265 29 -129 14 -250 28
-269 30 -19 3 -30 1 -25 -3z"/>
</g>
</svg>
